# Blender v2.79 (sub 0) OBJ File: ''
# www.blender.org
mtllib spoke.mtl
o Spoke2
v -2100.000000 100.000000 0.000016
v -2100.000000 -0.000016 100.000000
v -100.000000 -0.000016 100.000000
v -100.000000 100.000000 0.000016
v -2100.000000 -100.000000 -0.000016
v -100.000000 -100.000000 -0.000016
v -2100.000000 0.000016 -100.000000
v -100.000000 0.000016 -100.000000
v -2100.000000 90.000000 0.000015
v -2100.000000 -0.000015 90.000000
v -2100.000000 -90.000000 -0.000015
v -2100.000000 0.000015 -90.000000
v -100.000000 90.000000 0.000015
v -100.000000 -0.000015 90.000000
v -100.000000 -90.000000 -0.000015
v -100.000000 0.000015 -90.000000
vt 0.466902 0.974401
vt 0.356576 0.974401
vt 0.356576 0.025598
vt 0.466902 0.025598
vt 0.246250 0.974402
vt 0.135924 0.974402
vt 0.135924 0.025598
vt 0.246250 0.025598
vt 0.246250 0.025598
vt 0.356576 0.025598
vt 0.356576 0.974402
vt 0.246250 0.974402
vt 0.135924 0.974402
vt 0.025598 0.974402
vt 0.025598 0.025598
vt 0.135924 0.025598
vt 0.869592 0.156425
vt 0.968886 0.156425
vt 0.974402 0.159779
vt 0.864076 0.159779
vt 0.968886 0.096043
vt 0.974402 0.092689
vt 0.869592 0.096043
vt 0.864076 0.092689
vt 0.466902 0.025598
vt 0.566195 0.025598
vt 0.566196 0.974402
vt 0.466902 0.974402
vt 0.665489 0.025598
vt 0.665489 0.974402
vt 0.764783 0.025598
vt 0.864076 0.025598
vt 0.864076 0.974401
vt 0.764783 0.974401
vt 0.665489 0.025598
vt 0.764782 0.025598
vt 0.764783 0.974402
vt 0.665489 0.974402
vt 0.974402 0.092689
vt 0.864076 0.092689
vt 0.869592 0.089334
vt 0.968886 0.089334
vt 0.864076 0.025598
vt 0.869592 0.028953
vt 0.974402 0.025598
vt 0.968886 0.028953
vn 0.0000 0.7071 0.7071
vn 0.0000 -0.7071 0.7071
vn 0.0000 -0.7071 -0.7071
vn 0.0000 0.7071 -0.7071
vn -1.0000 0.0000 0.0000
vn 1.0000 0.0000 0.0000
usemtl _100004
s 1
f 1/1/1 2/2/1 3/3/1 4/4/1
f 2/5/2 5/6/2 6/7/2 3/8/2
f 5/9/3 7/10/3 8/11/3 6/12/3
f 7/13/4 1/14/4 4/15/4 8/16/4
f 9/17/5 10/18/5 2/19/5 1/20/5
f 10/18/5 11/21/5 5/22/5 2/19/5
f 11/21/5 12/23/5 7/24/5 5/22/5
f 12/23/5 9/17/5 1/20/5 7/24/5
f 13/25/3 14/26/3 10/27/3 9/28/3
f 14/26/4 15/29/4 11/30/4 10/27/4
f 15/31/1 16/32/1 12/33/1 11/34/1
f 16/35/2 13/36/2 9/37/2 12/38/2
f 4/39/6 3/40/6 14/41/6 13/42/6
f 3/40/6 6/43/6 15/44/6 14/41/6
f 6/43/6 8/45/6 16/46/6 15/44/6
f 8/45/6 4/39/6 13/42/6 16/46/6
