# Blender v2.79 (sub 0) OBJ File: ''
# www.blender.org
mtllib station3.mtl
o Spoke3
v -100.000000 -2100.000000 -0.000342
v 0.000000 -2100.000000 99.999657
v 0.000000 -100.000015 99.999985
v -100.000000 -100.000000 -0.000016
v 100.000000 -2100.000000 -0.000342
v 100.000000 -100.000000 -0.000016
v 0.000000 -2100.000000 -100.000343
v 0.000000 -99.999985 -100.000015
v -90.000000 -2100.000000 -0.000342
v 0.000000 -2100.000000 89.999657
v 90.000000 -2100.000000 -0.000342
v 0.000000 -2100.000000 -90.000343
v -90.000000 -100.000000 -0.000016
v 0.000000 -100.000015 89.999985
v 90.000000 -100.000000 -0.000016
v 0.000000 -99.999985 -90.000015
vn -0.7071 -0.0000 0.7071
vn 0.7071 -0.0000 0.7071
vn 0.7071 0.0000 -0.7071
vn -0.7071 0.0000 -0.7071
vn 0.0000 -1.0000 0.0000
vn 0.0000 1.0000 0.0000
usemtl _100005
s 1
f 1//1 2//1 3//1 4//1
f 2//2 5//2 6//2 3//2
f 5//3 7//3 8//3 6//3
f 7//4 1//4 4//4 8//4
f 9//5 10//5 2//5 1//5
f 10//5 11//5 5//5 2//5
f 11//5 12//5 7//5 5//5
f 12//5 9//5 1//5 7//5
f 13//3 14//3 10//3 9//3
f 14//4 15//4 11//4 10//4
f 15//1 16//1 12//1 11//1
f 16//2 13//2 9//2 12//2
f 4//6 3//6 14//6 13//6
f 3//6 6//6 15//6 14//6
f 6//6 8//6 16//6 15//6
f 8//6 4//6 13//6 16//6
o Spoke1
v 100.000000 100.000000 0.000016
v 100.000000 -0.000016 100.000000
v 2100.000000 -0.000016 100.000000
v 2100.000000 100.000000 0.000016
v 100.000000 -100.000000 -0.000016
v 2100.000000 -100.000000 -0.000016
v 100.000000 0.000016 -100.000000
v 2100.000000 0.000016 -100.000000
v 2100.000000 -0.000015 90.000000
v 2100.000000 90.000000 0.000015
v 2100.000000 -90.000000 -0.000015
v 2100.000000 0.000015 -90.000000
v 100.000000 -0.000015 90.000000
v 100.000000 90.000000 0.000015
v 100.000000 -90.000000 -0.000015
v 100.000000 0.000015 -90.000000
vn 0.0000 0.7071 0.7071
vn 0.0000 -0.7071 0.7071
vn 0.0000 -0.7071 -0.7071
vn 0.0000 0.7071 -0.7071
vn 1.0000 0.0000 0.0000
vn -1.0000 0.0000 0.0000
usemtl _100003
s 1
f 17//7 18//7 19//7 20//7
f 18//8 21//8 22//8 19//8
f 21//9 23//9 24//9 22//9
f 23//10 17//10 20//10 24//10
f 20//11 19//11 25//11 26//11
f 19//11 22//11 27//11 25//11
f 22//11 24//11 28//11 27//11
f 24//11 20//11 26//11 28//11
f 26//9 25//9 29//9 30//9
f 25//10 27//10 31//10 29//10
f 27//7 28//7 32//7 31//7
f 28//8 26//8 30//8 32//8
f 30//12 29//12 18//12 17//12
f 29//12 31//12 21//12 18//12
f 31//12 32//12 23//12 21//12
f 32//12 30//12 17//12 23//12
o Spoke4
v -100.000000 100.000000 0.000016
v 0.000000 99.999985 100.000015
v 0.000000 2100.000000 100.000343
v -100.000000 2100.000000 0.000342
v 100.000000 100.000000 0.000016
v 100.000000 2100.000000 0.000342
v 0.000000 100.000015 -99.999985
v 0.000000 2100.000000 -99.999657
v 0.000000 2100.000000 90.000343
v -90.000000 2100.000000 0.000342
v 90.000000 2100.000000 0.000342
v 0.000000 2100.000000 -89.999657
v 0.000000 99.999985 90.000015
v -90.000000 100.000000 0.000016
v 90.000000 100.000000 0.000016
v 0.000000 100.000015 -89.999985
vn -0.7071 -0.0000 0.7071
vn 0.7071 -0.0000 0.7071
vn 0.7071 0.0000 -0.7071
vn -0.7071 0.0000 -0.7071
vn 0.0000 1.0000 0.0000
vn 0.0000 -1.0000 0.0000
usemtl _100006
s 1
f 33//13 34//13 35//13 36//13
f 34//14 37//14 38//14 35//14
f 37//15 39//15 40//15 38//15
f 39//16 33//16 36//16 40//16
f 36//17 35//17 41//17 42//17
f 35//17 38//17 43//17 41//17
f 38//17 40//17 44//17 43//17
f 40//17 36//17 42//17 44//17
f 42//15 41//15 45//15 46//15
f 41//16 43//16 47//16 45//16
f 43//13 44//13 48//13 47//13
f 44//14 42//14 46//14 48//14
f 46//18 45//18 34//18 33//18
f 48//18 46//18 33//18 39//18
o CentralPod
v 100.000000 100.000015 -99.999985
v 0.000000 100.000015 -99.999985
v 100.000000 100.000000 0.000016
v -100.000000 99.999985 100.000015
v -0.616000 99.999985 100.000015
v -100.000000 100.000000 0.000016
v 100.000000 99.999985 100.000015
v -100.000000 100.000015 -99.999985
v 100.000000 -0.117016 100.000000
v 100.000000 -0.117016 100.000000
v 100.000000 -100.000015 99.999985
v 100.000000 -100.000000 -0.000016
v 100.000000 -99.999985 -100.000015
v 100.000000 0.000016 -100.000000
v 100.000000 0.000016 -100.000000
v 0.000000 -100.000015 99.999985
v -100.000000 -100.000015 99.999985
v -100.000000 -100.000000 -0.000016
v -100.000000 -99.999985 -100.000015
v 0.000000 -99.999985 -100.000015
v -100.000000 0.000016 -100.000000
v -100.000000 0.432984 100.000000
vt 0.500000 0.500000
vt -49.500000 0.500000
vt 0.500000 50.500000
vt 0.500000 0.500000
vt 50.192001 0.500000
vt 0.500000 -49.500000
vt 0.500000 0.500000
vt 0.500000 -49.500000
vt -49.807999 0.500000
vt 0.500000 0.500000
vt 0.500000 50.500000
vt 50.500000 0.500000
vt -49.558498 0.500000
vt 0.441500 0.500000
vt 0.441500 0.500000
vt -49.500000 0.500000
vt -49.500000 -49.500000
vt 0.500000 0.500000
vt 50.500000 0.500000
vt 0.500000 50.500000
vt -49.500000 0.500000
vt -49.500000 0.500000
vt 0.500000 0.500000
vt -49.500000 0.500000
vt 0.500000 -49.500000
vt 0.500000 0.500000
vt 0.500000 -49.500000
vt 50.500000 0.500000
vt 0.500000 0.500000
vt 50.500000 0.500000
vt 0.500000 50.500000
vt -49.500000 0.500000
vt 0.500000 -49.500000
vt 0.500000 -99.500000
vt -49.500000 -99.500000
vt -99.500000 -99.500000
vt -99.500000 -49.500000
vt -99.500000 0.500000
vt 50.500000 0.500000
vt -49.500000 0.500000
vt 100.500000 0.500000
vt 100.500000 -49.500000
vt 50.716499 0.500000
vn 0.0000 1.0000 0.0000
vn 1.0000 0.0000 0.0000
vn 0.0000 -1.0000 -0.0000
vn 0.0000 0.0000 -1.0000
vn -1.0000 0.0000 0.0000
usemtl _100001
s 1
f 49/1/19 50/2/19 51/3/19
f 52/4/19 53/5/19 54/6/19
f 55/7/19 51/8/19 53/9/19
f 56/10/19 54/11/19 50/12/19
f 55/7/20 57/13/20 51/8/20
f 58/14/20 57/15/20 59/16/20 60/17/20
f 61/18/20 62/19/20 60/20/20
f 49/1/20 51/3/20 63/21/20 62/22/20
f 59/23/21 64/24/21 60/25/21
f 65/26/21 66/27/21 64/28/21
f 67/29/21 68/30/21 66/31/21
f 61/18/21 60/20/21 68/32/21
f 49/1/22 62/33/22 61/34/22 68/35/22 67/36/22 69/37/22 56/38/22 50/2/22
f 67/29/23 66/31/23 69/39/23
f 56/10/23 69/40/23 54/11/23
f 65/26/23 52/41/23 54/42/23 70/43/23 66/27/23
o CentralWindow
v -30.000000 29.999977 140.000000
v -40.000000 -0.000023 140.000000
v -30.000000 -30.000023 140.000000
v 0.000000 -40.000023 140.000000
v 30.000000 -30.000023 140.000000
v 40.000000 -0.000023 140.000000
v 30.000000 29.999977 140.000000
v 0.000000 39.999977 140.000000
v -100.000000 99.999985 100.000015
v -100.000000 0.432984 100.000000
v -100.000000 -100.000015 99.999985
v 100.000000 -100.000015 99.999985
v 100.000000 -0.117016 100.000000
v 100.000000 99.999985 100.000015
v 0.258000 -100.000015 99.999985
v -0.616000 99.999985 100.000015
vn -0.1939 0.1939 0.9617
vn -0.3499 -0.0000 0.9368
vn -0.1939 -0.1939 0.9617
vn 0.0000 -0.3499 0.9368
vn 0.1939 -0.1939 0.9617
vn 0.3499 -0.0000 0.9368
vn 0.1939 0.1939 0.9617
vn 0.0000 0.3499 0.9368
vn -0.2901 0.2901 0.9120
vn -0.5090 -0.0001 0.8608
vn -0.2902 -0.2902 0.9119
vn 0.2902 -0.2901 0.9119
vn 0.5087 -0.0001 0.8609
vn 0.2900 0.2900 0.9120
vn 0.0002 -0.5087 0.8609
vn -0.0004 0.5087 0.8609
usemtl _100002
s 1
f 71//24 72//25 73//26 74//27 75//28 76//29 77//30 78//31
f 71//24 79//32 80//33 72//25
f 72//25 80//33 81//34 73//26
f 75//28 82//35 83//36 76//29
f 76//29 83//36 84//37 77//30
f 73//26 81//34 85//38 74//27
f 74//27 85//38 82//35 75//28
f 78//31 86//39 79//32 71//24
f 77//30 84//37 86//39 78//31
o Spoke2
v -2100.000000 100.000000 0.000016
v -2100.000000 -0.000016 100.000000
v -100.000000 -0.000016 100.000000
v -100.000000 100.000000 0.000016
v -2100.000000 -100.000000 -0.000016
v -100.000000 -100.000000 -0.000016
v -2100.000000 0.000016 -100.000000
v -100.000000 0.000016 -100.000000
v -2100.000000 90.000000 0.000015
v -2100.000000 -0.000015 90.000000
v -2100.000000 -90.000000 -0.000015
v -2100.000000 0.000015 -90.000000
v -100.000000 90.000000 0.000015
v -100.000000 -0.000015 90.000000
v -100.000000 -90.000000 -0.000015
v -100.000000 0.000015 -90.000000
vn 0.0000 0.7071 0.7071
vn 0.0000 -0.7071 0.7071
vn 0.0000 -0.7071 -0.7071
vn 0.0000 0.7071 -0.7071
vn -1.0000 0.0000 0.0000
vn 1.0000 0.0000 0.0000
usemtl _100004
s 1
f 87//40 88//40 89//40 90//40
f 88//41 91//41 92//41 89//41
f 91//42 93//42 94//42 92//42
f 93//43 87//43 90//43 94//43
f 95//44 96//44 88//44 87//44
f 96//44 97//44 91//44 88//44
f 97//44 98//44 93//44 91//44
f 98//44 95//44 87//44 93//44
f 99//42 100//42 96//42 95//42
f 100//43 101//43 97//43 96//43
f 101//40 102//40 98//40 97//40
f 102//41 99//41 95//41 98//41
f 90//45 89//45 100//45 99//45
f 89//45 92//45 101//45 100//45
f 92//45 94//45 102//45 101//45
f 94//45 90//45 99//45 102//45
o Wheel
v 1948.557007 1125.000000 86.603180
v 2250.000000 -0.000014 86.602997
v 2300.000000 0.000000 0.000000
v 1991.858032 1150.000000 0.000187
v 1861.954956 1075.000000 86.603172
v 2150.000000 -0.000014 86.602997
v 1948.557007 1125.000000 -86.602814
v 2250.000000 0.000014 -86.602997
v 2150.000000 0.000014 -86.602997
v 1861.954956 1075.000000 -86.602821
v 1125.000000 1948.557007 86.603317
v 1150.000000 1991.858032 0.000325
v 1075.000000 1861.954956 86.603302
v 1050.000000 1818.652954 0.000296
v 1818.652954 1050.000000 0.000171
v 1075.000000 1861.954956 -86.602692
v 1125.000000 1948.557007 -86.602676
v 0.000000 2250.000000 86.603363
v 0.000000 2300.000000 0.000375
v 0.000000 2150.000000 86.603348
v 0.000000 2250.000000 -86.602631
v 0.000000 2150.000000 -86.602646
v -1125.000000 1948.557007 86.603317
v -1150.000000 1991.858032 0.000325
v -1075.000000 1861.954956 86.603302
v -1125.000000 1948.557007 -86.602676
v -1075.000000 1861.954956 -86.602692
v -1948.557007 1125.000000 86.603180
v -1991.858032 1150.000000 0.000187
v -1861.954956 1075.000000 86.603172
v -1818.652954 1050.000000 0.000171
v -1050.000000 1818.652954 0.000296
v -1861.954956 1075.000000 -86.602821
v -1948.557007 1125.000000 -86.602814
v -2250.000000 -0.000014 86.602997
v -2300.000000 0.000000 0.000000
v -2150.000000 -0.000014 86.602997
v -2250.000000 0.000014 -86.602997
v -2150.000000 0.000014 -86.602997
v -1948.557007 -1125.000000 86.602814
v -1991.858032 -1150.000000 -0.000187
v -1861.954956 -1075.000000 86.602821
v -1948.557007 -1125.000000 -86.603180
v -1861.954956 -1075.000000 -86.603172
v -1125.000000 -1948.557007 86.602676
v -1150.000000 -1991.858032 -0.000325
v -1075.000000 -1861.954956 86.602692
v -1050.000000 -1818.652954 -0.000296
v -1818.652954 -1050.000000 -0.000171
v -1075.000000 -1861.954956 -86.603302
v -1125.000000 -1948.557007 -86.603317
v 0.000000 -2250.000000 86.602631
v 0.000000 -2300.000000 -0.000375
v 0.000000 -2150.000000 86.602646
v 0.000000 -2250.000000 -86.603363
v 0.000000 -2150.000000 -86.603348
v 1125.000000 -1948.557007 86.602676
v 1150.000000 -1991.858032 -0.000325
v 1075.000000 -1861.954956 86.602692
v 1125.000000 -1948.557007 -86.603317
v 1075.000000 -1861.954956 -86.603302
v 1948.557007 -1125.000000 86.602814
v 1991.858032 -1150.000000 -0.000187
v 1861.954956 -1075.000000 86.602821
v 1818.652954 -1050.000000 -0.000171
v 1050.000000 -1818.652954 -0.000296
v 1861.954956 -1075.000000 -86.603172
v 1948.557007 -1125.000000 -86.603180
v -99.939003 -2073.220947 -0.000338
v 100.434998 -2073.089111 -0.000338
v 0.000000 -2100.000000 -100.000343
v 0.000000 -2100.000000 99.999657
v 86.876999 2076.720947 0.000338
v -89.572998 2075.999023 0.000338
v 0.000000 2100.000000 -89.999657
v 0.000000 2100.000000 100.000343
v 2076.050049 -89.382004 -0.000015
v 2100.000000 0.000015 -90.000000
v 2076.077881 89.278000 0.000015
v 2100.000000 -0.000015 90.000000
v -2076.264893 88.580002 0.000014
v -2100.000000 0.000015 -90.000000
v -2076.375000 -88.168999 -0.000014
v -2100.000000 -0.000015 90.000000
vt 0.000000 0.801498
vt -562.500000 0.801498
vt -562.500000 -42.500000
vt 12.500000 -42.500000
vt 0.477478 0.000000
vt 144.500000 -537.500000
vt 194.500000 -537.500000
vt 43.778503 25.000000
vt 0.778503 0.000000
vt 151.500000 -562.500000
vt 101.500000 -562.500000
vt -42.522522 -25.000000
vt 0.500000 0.500000
vt -574.500000 0.500000
vt -574.500000 -42.801498
vt -12.000000 -42.801498
vt 0.000000 0.801498
vt 411.778503 0.801498
vt 433.429016 -42.500000
vt 12.500000 -42.500000
vt 0.000000 0.477478
vt 393.477478 -393.000000
vt 436.778503 -368.000000
vt 25.000000 43.778503
vt 0.500000 0.500000
vt 384.826477 0.500000
vt 406.477478 43.801498
vt 13.000000 43.801498
vt 0.000000 0.198502
vt 393.477478 0.198502
vt 371.826477 43.500000
vt -12.500000 43.500000
vt 0.000000 0.778503
vt 411.778503 -411.000000
vt 368.477478 -436.000000
vt -25.000000 -42.522522
vt 0.500000 0.500000
vt 421.429016 0.500000
vt 399.778503 -42.801498
vt -12.000000 -42.801498
vt 0.500000 0.801498
vt 563.000000 0.801498
vt 575.500000 -42.500000
vt 0.500000 -42.500000
vt 0.500000 0.500000
vt 538.000000 -143.522522
vt 563.000000 -100.221497
vt 0.500000 50.500000
vt 0.500000 0.500000
vt 563.000000 -150.221497
vt 538.000000 -193.522522
vt 0.500000 -49.500000
vt 0.500000 0.500000
vt 575.500000 0.500000
vt 563.000000 -42.801498
vt 0.500000 -42.801498
vt 0.000000 0.801498
vt 562.500000 0.801498
vt 562.500000 -42.500000
vt -12.500000 -42.500000
vt 0.000000 0.477478
vt 537.500000 144.500000
vt 537.500000 194.500000
vt -25.000000 43.778503
vt 0.000000 0.778503
vt 562.500000 151.500000
vt 562.500000 101.500000
vt 25.000000 -42.522522
vt 0.500000 0.500000
vt 575.500000 0.500000
vt 575.500000 -42.801498
vt 13.000000 -42.801498
vt 0.221497 0.801498
vt 412.000000 0.801498
vt 399.500000 -42.500000
vt -21.429016 -42.500000
vt 0.522522 0.000000
vt 394.000000 393.477478
vt 369.000000 436.778503
vt -42.778503 25.000000
vt 0.173523 0.500000
vt 384.500000 0.500000
vt 372.000000 43.801498
vt -21.477478 43.801498
vt 0.522522 0.198502
vt 394.000000 0.198502
vt 406.500000 43.500000
vt 22.173523 43.500000
vt 0.221497 0.000000
vt 412.000000 411.778503
vt 437.000000 368.477478
vt 43.522522 -25.000000
vt 0.570984 0.500000
vt 421.500000 0.500000
vt 434.000000 -42.801498
vt 22.221497 -42.801498
vt 0.500000 0.801498
vt 563.000000 0.801498
vt 575.500000 -42.500000
vt 0.500000 -42.500000
vt 0.500000 0.500000
vt 144.522522 538.000000
vt 101.221497 563.000000
vt -49.500000 0.500000
vt 0.500000 0.500000
vt 151.221497 563.000000
vt 194.522522 538.000000
vt 50.500000 0.500000
vt 0.500000 0.500000
vt 575.500000 0.500000
vt 563.000000 -42.801498
vt 0.500000 -42.801498
vt 0.000000 0.801498
vt 562.500000 0.801498
vt 562.500000 -42.500000
vt -12.500000 -42.500000
vt 0.522522 0.000000
vt -143.500000 537.500000
vt -193.500000 537.500000
vt -42.778503 -25.000000
vt 0.221497 0.000000
vt -150.500000 562.500000
vt -100.500000 562.500000
vt 43.522522 25.000000
vt 0.500000 0.500000
vt 575.500000 0.500000
vt 575.500000 -42.801498
vt 13.000000 -42.801498
vt 0.000000 0.801498
vt -411.778503 0.801498
vt -433.429016 -42.500000
vt -12.500000 -42.500000
vt 0.000000 0.522522
vt -393.477478 394.000000
vt -436.778503 369.000000
vt -25.000000 -42.778503
vt 0.500000 0.500000
vt -383.826477 0.500000
vt -405.477478 43.801498
vt -12.000000 43.801498
vt 0.000000 0.198502
vt -393.477478 0.198502
vt -371.826477 43.500000
vt 12.500000 43.500000
vt 0.000000 0.221497
vt -411.778503 412.000000
vt -368.477478 437.000000
vt 25.000000 43.522522
vt 0.500000 0.500000
vt -420.429016 0.500000
vt -398.778503 -42.801498
vt 13.000000 -42.801498
vt 0.500000 0.801498
vt -562.000000 0.801498
vt -574.500000 -42.500000
vt 0.500000 -42.500000
vt 0.500000 0.500000
vt -537.000000 144.522522
vt -562.000000 101.221497
vt 0.500000 -49.500000
vt 0.500000 0.500000
vt -562.000000 151.221497
vt -537.000000 194.522522
vt 0.500000 50.500000
vt 0.500000 0.500000
vt -574.500000 0.500000
vt -562.000000 -42.801498
vt 0.500000 -42.801498
vt 0.000000 0.801498
vt -562.500000 0.801498
vt -562.500000 -42.500000
vt 12.500000 -42.500000
vt 0.000000 0.522522
vt -537.500000 -143.500000
vt -537.500000 -193.500000
vt 25.000000 -42.778503
vt 0.000000 0.221497
vt -562.500000 -150.500000
vt -562.500000 -100.500000
vt -25.000000 43.522522
vt 0.500000 0.500000
vt -574.500000 0.500000
vt -574.500000 -42.801498
vt -12.000000 -42.801498
vt 0.778503 0.801498
vt -411.000000 0.801498
vt -398.500000 -42.500000
vt 22.429016 -42.500000
vt 0.477478 0.000000
vt -393.000000 -393.477478
vt -368.000000 -436.778503
vt 43.778503 -25.000000
vt 0.826477 0.500000
vt -383.500000 0.500000
vt -371.000000 43.801498
vt 22.477478 43.801498
vt 0.477478 0.198502
vt -393.000000 0.198502
vt -405.500000 43.500000
vt -21.173523 43.500000
vt 0.778503 0.000000
vt -411.000000 -411.778503
vt -436.000000 -368.477478
vt -42.522522 25.000000
vt 0.429016 0.500000
vt -420.500000 0.500000
vt -433.000000 -42.801498
vt -21.221497 -42.801498
vt 0.500000 0.801498
vt -562.000000 0.801498
vt -574.500000 -42.500000
vt 0.500000 -42.500000
vt 0.500000 0.500000
vt -143.522522 -537.000000
vt -100.221497 -562.000000
vt 50.500000 0.500000
vt 0.500000 0.500000
vt -150.221497 -562.000000
vt -193.522522 -537.000000
vt -49.500000 0.500000
vt 0.500000 0.500000
vt -574.500000 0.500000
vt -562.000000 -42.801498
vt 0.500000 -42.801498
vt 525.500000 43.801498
vt 475.530487 0.500000
vt 0.500000 0.500000
vt 13.000000 -42.801498
vt -524.500000 -42.801498
vt -474.282501 0.500000
vt 487.530487 43.500000
vt 537.500000 0.198502
vt 0.889526 0.500000
vt -12.500000 -49.500000
vt -37.500000 -42.801498
vt 0.955444 0.500000
vt -12.500000 50.500000
vt -37.500000 43.801498
vt 0.500000 0.500000
vt 13.889526 -49.500000
vt -24.500000 -6.198502
vt 0.000000 0.801498
vt -12.500000 -42.500000
vt -487.282501 -42.500000
vt -537.500000 0.801498
vt -494.061493 43.500000
vt -537.500000 0.198502
vt 0.000000 0.801498
vt 12.500000 -42.500000
vt 492.713501 -42.500000
vt 537.500000 0.801498
vt 0.500000 0.500000
vt -11.500488 45.500000
vt 25.500000 2.198502
vt 0.500000 0.198502
vt -36.139526 43.500000
vt -24.500000 -1.500000
vt -44.286499 43.500000
vt -524.500000 43.500000
vt -537.000000 0.198502
vt 0.500000 0.500000
vt -11.139526 -49.500000
vt 25.500000 -6.198502
vt 0.500000 0.801498
vt -36.500488 -42.500000
vt -24.500000 7.500000
vt 43.938499 -42.500000
vt 525.500000 -42.500000
vt 538.000000 0.801498
vt 0.000000 0.198502
vt 12.500000 43.500000
vt 492.808990 43.500000
vt 537.500000 0.198502
vt 0.500000 0.500000
vt -12.000000 43.801498
vt 525.500000 43.801498
vt 480.808990 0.500000
vt 0.500000 0.500000
vt -11.461060 45.500000
vt 25.500000 2.198502
vt 0.500000 0.198502
vt -36.474976 43.500000
vt -24.500000 -1.500000
vt 45.139000 43.500000
vt 525.500000 43.500000
vt 538.000000 0.198502
vt 0.500000 0.801498
vt -36.461060 -42.500000
vt -24.500000 2.500000
vt 0.500000 0.500000
vt -11.474976 -44.500000
vt 25.500000 -1.198502
vt 0.000000 0.801498
vt -12.500000 -42.500000
vt -492.860992 -42.500000
vt -537.500000 0.801498
vt 0.000000 0.198502
vt -12.500000 43.500000
vt -493.209991 43.500000
vt -537.500000 0.198502
vt 0.500000 0.500000
vt 13.000000 43.801498
vt -524.500000 43.801498
vt -480.209991 0.500000
vt 0.500000 0.500000
vt 12.312500 45.500000
vt -24.500000 2.198502
vt 0.500000 0.198502
vt 37.367554 43.500000
vt 25.500000 -1.500000
vt -43.584499 43.500000
vt -524.500000 43.500000
vt -537.000000 0.198502
vt 0.500000 0.801498
vt 37.312500 -42.500000
vt 25.500000 2.500000
vt 0.500000 0.500000
vt 12.367554 -44.500000
vt -24.500000 -1.198502
vt 0.000000 0.801498
vt 12.500000 -42.500000
vt 493.415497 -42.500000
vt 537.500000 0.801498
vn 0.7500 0.4330 0.5000
vn 0.8660 0.0000 0.5000
vn 0.0000 -0.0000 1.0000
vn 0.0000 0.0000 -1.0000
vn 0.7500 0.4330 -0.5000
vn 0.8660 0.0000 -0.5000
vn 0.4330 0.7500 0.5000
vn -0.4330 -0.7500 0.5000
vn -0.7500 -0.4330 0.5000
vn -0.4330 -0.7500 -0.5000
vn -0.7500 -0.4330 -0.5000
vn 0.4330 0.7500 -0.5000
vn 0.0000 0.8660 0.5000
vn 0.0000 0.8660 -0.5000
vn -0.4330 0.7500 0.5000
vn -0.4330 0.7500 -0.5000
vn -0.7500 0.4330 0.5000
vn 0.7500 -0.4330 0.5000
vn 0.4330 -0.7500 0.5000
vn 0.7500 -0.4330 -0.5000
vn 0.4330 -0.7500 -0.5000
vn -0.7500 0.4330 -0.5000
vn -0.8660 0.0000 0.5000
vn -0.8660 0.0000 -0.5000
vn 0.6177 0.6177 0.4868
vn 0.0000 -0.8660 0.5000
vn 0.0000 -0.8660 -0.5000
vn 0.2260 0.8436 0.4871
vn -0.2260 0.8436 -0.4871
vn 0.2260 0.8436 -0.4871
vn -0.7192 -0.1800 -0.6711
vn 0.7177 -0.1799 -0.6728
vn 0.7177 -0.1799 0.6728
vn -0.7192 -0.1800 0.6711
vn -0.2259 0.8438 0.4868
vn -0.2260 -0.8436 -0.4871
vn 0.2260 -0.8436 0.4871
vn -0.7143 0.0474 -0.6982
vn 0.7250 0.0469 -0.6872
vn 0.2260 -0.8436 -0.4871
vn 0.7632 0.1669 0.6242
vn -0.7540 0.1700 0.6345
vn -0.2260 -0.8436 0.4871
vn -0.8436 0.2260 -0.4871
vn -0.8436 0.2260 0.4871
vn 0.0470 0.7152 -0.6973
vn 0.0470 -0.7148 -0.6977
vn -0.8438 -0.2259 -0.4868
vn 0.0470 0.7152 0.6973
vn 0.0470 -0.7148 0.6977
vn -0.8436 -0.2260 0.4871
vn 0.8436 -0.2260 -0.4871
vn 0.8436 -0.2260 0.4871
vn -0.0471 -0.7197 -0.6927
vn -0.0469 0.7183 -0.6942
vn 0.8438 0.2259 -0.4868
vn -0.0471 -0.7197 0.6927
vn -0.0469 0.7183 0.6942
vn 0.8439 0.2259 0.4867
usemtl _100007
s 1
f 103/44/46 104/45/47 105/46/47 106/47/46
f 107/48/48 108/49/48 104/50/48 103/51/48
f 109/52/49 110/53/49 111/54/49 112/55/49
f 106/56/50 105/57/51 110/58/51 109/59/50
f 113/60/52 103/61/46 106/62/46 114/63/52
f 115/64/48 107/65/48 103/66/48 113/67/48
f 116/68/53 117/69/54 107/70/54 115/71/53
f 118/72/55 112/73/56 117/74/56 116/75/55
f 119/76/49 109/77/49 112/78/49 118/79/49
f 114/80/57 106/81/50 109/82/50 119/83/57
f 120/84/58 113/85/52 114/86/52 121/87/58
f 122/88/48 115/89/48 113/90/48 120/91/48
f 123/92/49 119/93/49 118/94/49 124/95/49
f 121/96/59 114/97/57 119/98/57 123/99/59
f 125/100/60 120/101/58 121/102/58 126/103/60
f 127/104/48 122/105/48 120/106/48 125/107/48
f 128/108/49 123/109/49 124/110/49 129/111/49
f 126/112/61 121/113/59 123/114/59 128/115/61
f 130/116/62 125/117/60 126/118/60 131/119/62
f 132/120/48 127/121/48 125/122/48 130/123/48
f 133/124/63 134/125/64 127/126/64 132/127/63
f 135/128/65 129/129/66 134/130/66 133/131/65
f 136/132/49 128/133/49 129/134/49 135/135/49
f 131/136/67 126/137/61 128/138/61 136/139/67
f 137/140/68 130/141/62 131/142/62 138/143/68
f 139/144/48 132/145/48 130/146/48 137/147/48
f 140/148/49 136/149/49 135/150/49 141/151/49
f 138/152/69 131/153/67 136/154/67 140/155/69
f 142/156/54 137/157/68 138/158/68 143/159/54
f 144/160/48 139/161/48 137/162/48 142/163/48
f 145/164/49 140/165/49 141/166/49 146/167/49
f 143/168/56 138/169/69 140/170/69 145/171/56
f 147/172/53 142/173/54 143/174/54 148/175/53
f 149/176/48 144/177/48 142/178/48 147/179/48
f 150/180/52 151/181/70 144/182/70 149/183/52
f 152/184/57 146/185/50 151/186/50 150/187/57
f 153/188/49 145/189/49 146/190/49 152/191/49
f 148/192/55 143/193/56 145/194/56 153/195/55
f 154/196/71 147/197/53 148/198/53 155/199/71
f 156/200/48 149/201/48 147/202/48 154/203/48
f 157/204/49 153/205/49 152/206/49 158/207/49
f 155/208/72 148/209/55 153/210/55 157/211/72
f 159/212/64 154/213/71 155/214/71 160/215/64
f 161/216/48 156/217/48 154/218/48 159/219/48
f 162/220/49 157/221/49 158/222/49 163/223/49
f 160/224/66 155/225/72 157/226/72 162/227/66
f 164/228/63 159/229/64 160/230/64 165/231/63
f 166/232/48 161/233/48 159/234/48 164/235/48
f 167/236/62 168/237/60 161/238/60 166/239/62
f 169/240/67 163/241/61 168/242/61 167/243/67
f 170/244/49 162/245/49 163/246/49 169/247/49
f 165/248/65 160/249/66 162/250/66 170/251/65
f 104/252/47 164/253/63 165/254/63 105/255/47
f 108/256/48 166/257/48 164/258/48 104/259/48
f 110/260/49 170/261/49 169/262/49 111/263/49
f 105/264/51 165/265/65 170/266/65 110/267/51
f 150/180/52 149/183/52 156/268/58 171/269/73
f 168/270/61 163/271/61 158/272/59 172/273/74
f 152/184/57 150/187/57 171/274/75 158/275/59
f 171/276/76 173/277/76 158/278/76
f 172/279/77 158/278/77 173/277/77
f 172/279/78 174/280/78 156/281/78
f 174/282/79 171/283/79 156/284/79
f 161/285/60 168/286/60 172/287/80 156/288/58
f 118/72/55 116/75/55 175/289/81 124/290/72
f 127/291/64 134/292/64 176/293/82 122/294/71
f 177/295/83 176/296/83 124/297/83
f 124/298/84 175/299/84 177/300/84
f 124/298/72 176/301/85 134/302/66 129/303/66
f 178/304/86 175/305/86 122/306/86
f 122/307/87 176/308/87 178/309/87
f 122/307/71 175/310/88 116/311/53 115/312/53
f 169/313/67 167/314/67 179/315/89 111/316/69
f 167/317/62 166/318/62 108/319/68 179/320/90
f 180/321/91 181/322/91 111/323/91
f 111/324/92 179/325/92 180/326/92
f 111/324/69 181/327/93 117/328/56 112/329/56
f 108/330/94 181/331/94 182/332/94
f 182/333/95 179/334/95 108/335/95
f 107/336/54 117/337/54 181/338/96 108/339/68
f 135/340/65 133/341/65 183/342/97 141/343/51
f 133/344/63 132/345/63 139/346/98 183/347/98
f 184/348/99 185/349/99 141/350/99
f 141/351/100 183/352/100 184/353/100
f 141/351/51 185/354/101 151/355/50 146/356/50
f 139/357/102 185/358/102 186/359/102
f 186/360/103 183/361/103 139/362/103
f 144/363/104 151/364/104 185/365/104 139/366/104
